<svg class="w-10 h-10" viewBox="0 0 220 214" fill="none" xmlns="http://www.w3.org/2000/svg">
    <path d="M181.915 129.052L2.12463 115.349L0 117.173L179.791 130.876L181.915 129.052Z" fill="currentColor"></path>
    <path d="M181.915 129.052L2.12463 115.349L0 117.173L179.791 130.876L181.915 129.052Z" fill="currentColor"
        fill-opacity="0.2"></path>
    <path d="M194.436 118.306L14.6451 104.603L12.5205 106.427L192.311 120.13L194.436 118.306Z" fill="currentColor">
    </path>
    <path d="M194.436 118.306L14.6451 104.603L12.5205 106.427L192.311 120.13L194.436 118.306Z" fill="currentColor"
        fill-opacity="0.2"></path>
    <path d="M207.032 107.494L27.2416 93.7908L25.041 95.6797L204.832 109.383L207.032 107.494Z" fill="currentColor">
    </path>
    <path d="M207.032 107.494L27.2416 93.7908L25.041 95.6797L204.832 109.383L207.032 107.494Z" fill="currentColor"
        fill-opacity="0.2"></path>
    <path d="M219.552 96.7468L39.7614 83.0435L37.6367 84.8672L217.427 98.5705L219.552 96.7468Z" fill="currentColor">
    </path>
    <path d="M219.552 96.7468L39.7614 83.0435L37.6367 84.8672L217.427 98.5705L219.552 96.7468Z" fill="currentColor"
        fill-opacity="0.2"></path>
</svg>