<svg width="161" height="161" viewBox="0 0 161 161" fill="none" xmlns="http://www.w3.org/2000/svg">
<g clip-path="url(#clip0_210_7296)">
<mask id="mask0_210_7296" style="mask-type:luminance" maskUnits="userSpaceOnUse" x="1" y="1" width="160" height="160">
<path d="M1.256 160.5L160.5 160.5L160.5 1.256L1.256 1.256L1.256 160.5Z" fill="white"/>
</mask>
<g mask="url(#mask0_210_7296)">
<path d="M124.927 65.8291C124.325 65.1288 123.689 64.4497 123.027 63.7836C122.365 63.1174 121.677 62.5024 120.977 61.879L156.554 26.306C157.232 26.938 157.902 27.585 158.566 28.245C159.229 28.906 159.874 29.575 160.5 30.252L124.927 65.8291Z" fill="black"/>
<path d="M124.927 65.8291C124.325 65.1288 123.689 64.4497 123.027 63.7836C122.365 63.1174 121.677 62.5024 120.977 61.879L156.554 26.306C157.232 26.938 157.902 27.585 158.566 28.245C159.229 28.906 159.874 29.575 160.5 30.252L124.927 65.8291Z" fill="black" fill-opacity="0.2"/>
<path d="M28.245 158.566C27.585 157.902 26.938 157.232 26.306 156.554L61.879 120.977C62.4854 121.678 63.1217 122.361 63.7878 123.027C64.454 123.693 65.1344 124.327 65.8291 124.927L30.252 160.5C29.572 159.862 28.903 159.217 28.245 158.566Z" fill="black"/>
<path d="M28.245 158.566C27.585 157.902 26.938 157.232 26.306 156.554L61.879 120.977C62.4854 121.678 63.1217 122.361 63.7878 123.027C64.454 123.693 65.1344 124.327 65.8291 124.927L30.252 160.5C29.572 159.862 28.903 159.217 28.245 158.566Z" fill="black" fill-opacity="0.2"/>
<path d="M116.51 58.454C114.9 57.385 113.216 56.43 111.471 55.597L147.949 19.119C149.458 20.224 150.931 21.381 152.369 22.591L116.51 58.454Z" fill="black"/>
<path d="M116.51 58.454C114.9 57.385 113.216 56.43 111.471 55.597L147.949 19.119C149.458 20.224 150.931 21.381 152.369 22.591L116.51 58.454Z" fill="black" fill-opacity="0.2"/>
<path d="M22.591 152.369C21.381 150.926 20.224 149.451 19.119 147.945L55.597 111.467C56.431 113.211 57.386 114.895 58.454 116.506L22.591 152.369Z" fill="black"/>
<path d="M22.591 152.369C21.381 150.926 20.224 149.451 19.119 147.945L55.597 111.467C56.431 113.211 57.386 114.895 58.454 116.506L22.591 152.369Z" fill="black" fill-opacity="0.2"/>
<path d="M105.792 53.38C103.683 52.726 101.525 52.241 99.3393 51.928L138.345 12.927C140.016 13.863 141.659 14.86 143.273 15.916L105.792 53.38Z" fill="black"/>
<path d="M105.792 53.38C103.683 52.726 101.525 52.241 99.3393 51.928L138.345 12.927C140.016 13.863 141.659 14.86 143.273 15.916L105.792 53.38Z" fill="black" fill-opacity="0.2"/>
<path d="M15.899 143.273C14.849 141.659 13.859 140.016 12.931 138.345L51.937 99.3303C52.249 101.517 52.731 103.676 53.381 105.787L15.899 143.273Z" fill="black"/>
<path d="M15.899 143.273C14.849 141.659 13.859 140.016 12.931 138.345L51.937 99.3303C52.249 101.517 52.731 103.676 53.381 105.787L15.899 143.273Z" fill="black" fill-opacity="0.2"/>
<path d="M91.8106 51.553C88.6707 51.67 85.5538 52.139 82.5181 52.949L127.639 7.83201C129.497 8.56201 131.321 9.37 133.127 10.236L91.8106 51.553Z" fill="black"/>
<path d="M91.8106 51.553C88.6707 51.67 85.5538 52.139 82.5181 52.949L127.639 7.83201C129.497 8.56201 131.321 9.37 133.127 10.236L91.8106 51.553Z" fill="black" fill-opacity="0.2"/>
<path d="M10.236 133.126C9.382 131.32 8.56701 129.497 7.83201 127.635L52.949 82.5176C52.138 85.5533 51.67 88.6702 51.553 91.8101L10.236 133.126Z" fill="black"/>
<path d="M10.236 133.126C9.382 131.32 8.56701 129.497 7.83201 127.635L52.949 82.5176C52.138 85.5533 51.67 88.6702 51.553 91.8101L10.236 133.126Z" fill="black" fill-opacity="0.2"/>
<path d="M5.731 121.84C5.074 119.811 4.489 117.757 3.976 115.699L115.699 3.976C117.757 4.489 119.811 5.074 121.84 5.731L5.731 121.84Z" fill="black"/>
<path d="M5.731 121.84C5.074 119.811 4.489 117.757 3.976 115.699L115.699 3.976C117.757 4.489 119.811 5.074 121.84 5.731L5.731 121.84Z" fill="black" fill-opacity="0.2"/>
<path d="M2.605 109.152C2.204 106.841 1.892 104.52 1.67 102.191L102.191 1.67C104.517 1.886 106.838 2.198 109.152 2.605L2.605 109.152Z" fill="black"/>
<path d="M2.605 109.152C2.204 106.841 1.892 104.52 1.67 102.191L102.191 1.67C104.517 1.886 106.838 2.198 109.152 2.605L2.605 109.152Z" fill="black" fill-opacity="0.2"/>
<path d="M1.26801 94.71C1.22601 92.0025 1.30201 89.2865 1.50301 86.5962L86.5786 1.49899C89.286 1.30299 92.002 1.226 94.6924 1.264L1.26801 94.71Z" fill="black"/>
<path d="M1.26801 94.71C1.22601 92.0025 1.30201 89.2865 1.50301 86.5962L86.5786 1.49899C89.286 1.30299 92.002 1.226 94.6924 1.264L1.26801 94.71Z" fill="black" fill-opacity="0.2"/>
<path d="M2.61799 77.5513C3.21899 74.0794 4.01699 70.6446 5.00999 67.2638L67.2809 5.00101C70.6621 4.01101 74.0968 3.214 77.5684 2.614L2.61799 77.5513Z" fill="black"/>
<path d="M2.61799 77.5513C3.21899 74.0794 4.01699 70.6446 5.00999 67.2638L67.2809 5.00101C70.6621 4.01101 74.0968 3.214 77.5684 2.614L2.61799 77.5513Z" fill="black" fill-opacity="0.2"/>
<path d="M9.792 54.598C18.991 34.855 34.856 18.989 54.598 9.78799L9.792 54.598Z" fill="black"/>
<path d="M9.792 54.598C18.991 34.855 34.856 18.989 54.598 9.78799L9.792 54.598Z" fill="black" fill-opacity="0.2"/>
</g>
</g>
<defs>
<clipPath id="clip0_210_7296">
<rect width="160" height="160" fill="white" transform="matrix(-1 0 0 -1 160.5 160.5)"/>
</clipPath>
</defs>
</svg>
