<svg class="w-10 h-10" viewBox="0 0 160 160" fill="none" xmlns="http://www.w3.org/2000/svg">
    <g clip-path="url(#clip0_103_6476)">
        <path
            d="M35.5727 94.6709C36.1748 95.3712 36.8111 96.0503 37.473 96.7164C38.1349 97.3826 38.8225 97.9976 39.5228 98.621L3.94588 134.194C3.2683 133.562 2.59784 132.915 1.9345 132.255C1.27116 131.594 0.626329 130.925 0 130.248L35.5727 94.6709Z"
            fill="currentColor"></path>
        <path
            d="M35.5727 94.6709C36.1748 95.3712 36.8111 96.0503 37.473 96.7164C38.1349 97.3826 38.8225 97.9976 39.5228 98.621L3.94588 134.194C3.2683 133.562 2.59784 132.915 1.9345 132.255C1.27116 131.594 0.626329 130.925 0 130.248L35.5727 94.6709Z"
            fill="currentColor" fill-opacity="0.2"></path>
        <path
            d="M132.255 1.9345C132.915 2.59784 133.562 3.2683 134.194 3.94587L98.621 39.5228C98.0146 38.8224 97.3783 38.1392 96.7122 37.473C96.046 36.8068 95.3656 36.1734 94.6709 35.5727L130.248 0C130.928 0.637717 131.597 1.28255 132.255 1.9345Z"
            fill="currentColor"></path>
        <path
            d="M132.255 1.9345C132.915 2.59784 133.562 3.2683 134.194 3.94587L98.621 39.5228C98.0146 38.8224 97.3783 38.1392 96.7122 37.473C96.046 36.8068 95.3656 36.1734 94.6709 35.5727L130.248 0C130.928 0.637717 131.597 1.28255 132.255 1.9345Z"
            fill="currentColor" fill-opacity="0.2"></path>
        <path
            d="M43.9896 102.046C45.6003 103.115 47.2842 104.07 49.0287 104.903L12.5508 141.381C11.0419 140.276 9.56857 139.119 8.13086 137.909L43.9896 102.046Z"
            fill="currentColor"></path>
        <path
            d="M43.9896 102.046C45.6003 103.115 47.2842 104.07 49.0287 104.903L12.5508 141.381C11.0419 140.276 9.56857 139.119 8.13086 137.909L43.9896 102.046Z"
            fill="currentColor" fill-opacity="0.2"></path>
        <path
            d="M137.909 8.13086C139.119 9.57426 140.276 11.049 141.381 12.555L104.903 49.033C104.069 47.2888 103.114 45.605 102.046 43.9939L137.909 8.13086Z"
            fill="currentColor"></path>
        <path
            d="M137.909 8.13086C139.119 9.57426 140.276 11.049 141.381 12.555L104.903 49.033C104.069 47.2888 103.114 45.605 102.046 43.9939L137.909 8.13086Z"
            fill="currentColor" fill-opacity="0.2"></path>
        <path
            d="M54.7081 107.12C56.8172 107.774 58.9748 108.259 61.1607 108.572L22.1546 147.573C20.4835 146.637 18.8408 145.64 17.2266 144.584L54.7081 107.12Z"
            fill="currentColor"></path>
        <path
            d="M54.7081 107.12C56.8172 107.774 58.9748 108.259 61.1607 108.572L22.1546 147.573C20.4835 146.637 18.8408 145.64 17.2266 144.584L54.7081 107.12Z"
            fill="currentColor" fill-opacity="0.2"></path>
        <path
            d="M144.601 17.2271C145.651 18.8413 146.641 20.484 147.569 22.1551L108.563 61.1697C108.251 58.983 107.769 56.824 107.119 54.7129L144.601 17.2271Z"
            fill="currentColor"></path>
        <path
            d="M144.601 17.2271C145.651 18.8413 146.641 20.484 147.569 22.1551L108.563 61.1697C108.251 58.983 107.769 56.824 107.119 54.7129L144.601 17.2271Z"
            fill="currentColor" fill-opacity="0.2"></path>
        <path
            d="M68.6894 108.947C71.8293 108.83 74.9462 108.361 77.9819 107.551L32.8605 152.668C31.0029 151.938 29.1794 151.13 27.373 150.264L68.6894 108.947Z"
            fill="currentColor"></path>
        <path
            d="M68.6894 108.947C71.8293 108.83 74.9462 108.361 77.9819 107.551L32.8605 152.668C31.0029 151.938 29.1794 151.13 27.373 150.264L68.6894 108.947Z"
            fill="currentColor" fill-opacity="0.2"></path>
        <path
            d="M150.264 27.3735C151.118 29.1799 151.933 31.0034 152.668 32.8653L107.551 77.9824C108.362 74.9467 108.83 71.8298 108.947 68.6899L150.264 27.3735Z"
            fill="currentColor"></path>
        <path
            d="M150.264 27.3735C151.118 29.1799 151.933 31.0034 152.668 32.8653L107.551 77.9824C108.362 74.9467 108.83 71.8298 108.947 68.6899L150.264 27.3735Z"
            fill="currentColor" fill-opacity="0.2"></path>
        <path
            d="M154.769 38.6602C155.426 40.6886 156.011 42.7427 156.524 44.801L44.801 156.524C42.7427 156.011 40.6886 155.426 38.6602 154.769L154.769 38.6602Z"
            fill="currentColor"></path>
        <path
            d="M154.769 38.6602C155.426 40.6886 156.011 42.7427 156.524 44.801L44.801 156.524C42.7427 156.011 40.6886 155.426 38.6602 154.769L154.769 38.6602Z"
            fill="currentColor" fill-opacity="0.2"></path>
        <path
            d="M157.895 51.3477C158.296 53.6594 158.608 55.9796 158.83 58.3085L58.3085 158.83C55.9825 158.614 53.6622 158.302 51.3477 157.895L157.895 51.3477Z"
            fill="currentColor"></path>
        <path
            d="M157.895 51.3477C158.296 53.6594 158.608 55.9796 158.83 58.3085L58.3085 158.83C55.9825 158.614 53.6622 158.302 51.3477 157.895L157.895 51.3477Z"
            fill="currentColor" fill-opacity="0.2"></path>
        <path
            d="M159.232 65.79C159.274 68.4975 159.198 71.2135 158.997 73.9038L73.9214 159.001C71.214 159.197 68.498 159.274 65.8076 159.236L159.232 65.79Z"
            fill="currentColor"></path>
        <path
            d="M159.232 65.79C159.274 68.4975 159.198 71.2135 158.997 73.9038L73.9214 159.001C71.214 159.197 68.498 159.274 65.8076 159.236L159.232 65.79Z"
            fill="currentColor" fill-opacity="0.2"></path>
        <path
            d="M157.882 82.9487C157.281 86.4206 156.483 89.8554 155.49 93.2362L93.2191 155.499C89.8379 156.489 86.4032 157.286 82.9316 157.886L157.882 82.9487Z"
            fill="currentColor"></path>
        <path
            d="M157.882 82.9487C157.281 86.4206 156.483 89.8554 155.49 93.2362L93.2191 155.499C89.8379 156.489 86.4032 157.286 82.9316 157.886L157.882 82.9487Z"
            fill="currentColor" fill-opacity="0.2"></path>
        <path d="M150.708 105.902C141.509 125.645 125.644 141.511 105.902 150.712L150.708 105.902Z" fill="currentColor">
        </path>
        <path d="M150.708 105.902C141.509 125.645 125.644 141.511 105.902 150.712L150.708 105.902Z" fill="currentColor"
            fill-opacity="0.2"></path>
    </g>
    <defs>
        <clipPath id="clip0_103_6476">
            <rect width="159.244" height="159.244" fill="white"></rect>
        </clipPath>
    </defs>
</svg>