<svg xmlns="http://www.w3.org/2000/svg" fill="none" viewBox="0 0 400 400">
  <path fill="#FF0025"
    d="M196.356 8.052c1.418-3.134 5.87-3.134 7.288 0l17.315 38.258c1.185 2.619 4.664 3.17 6.6 1.045l28.29-31.035c2.318-2.542 6.551-1.167 6.932 2.253l4.645 41.736c.318 2.857 3.456 4.456 5.954 3.034l36.496-20.774c2.99-1.702 6.591.914 5.897 4.284l-8.48 41.128c-.58 2.816 1.91 5.306 4.725 4.726l41.129-8.48c3.37-.694 5.986 2.907 4.284 5.897l-20.773 36.496c-1.423 2.498.176 5.636 3.033 5.954l41.736 4.645c3.42.381 4.795 4.614 2.253 6.932l-31.035 28.29c-2.125 1.936-1.574 5.415 1.045 6.6l38.258 17.315c3.134 1.418 3.134 5.87 0 7.288l-38.258 17.315c-2.619 1.185-3.17 4.664-1.045 6.6l31.035 28.29c2.542 2.318 1.167 6.551-2.253 6.932l-41.736 4.645c-2.857.318-4.456 3.456-3.033 5.954l20.773 36.496c1.702 2.99-.914 6.591-4.284 5.897l-41.129-8.48c-2.815-.58-5.305 1.91-4.725 4.725l8.48 41.129c.694 3.37-2.907 5.986-5.897 4.284l-36.496-20.773c-2.498-1.423-5.636.176-5.954 3.033l-4.645 41.736c-.381 3.42-4.614 4.795-6.932 2.253l-28.29-31.035c-1.936-2.125-5.415-1.574-6.6 1.045l-17.315 38.258c-1.418 3.134-5.87 3.134-7.288 0l-17.315-38.258c-1.185-2.619-4.664-3.17-6.6-1.045l-28.29 31.035c-2.318 2.542-6.551 1.167-6.932-2.253l-4.645-41.736c-.318-2.857-3.456-4.456-5.954-3.033l-36.496 20.773c-2.99 1.702-6.591-.914-5.896-4.284l8.479-41.129c.58-2.815-1.91-5.305-4.725-4.725l-41.13 8.48c-3.369.694-5.985-2.907-4.283-5.897l20.773-36.496c1.422-2.498-.176-5.636-3.033-5.954l-41.736-4.645c-3.42-.381-4.795-4.614-2.253-6.932l31.035-28.29c2.125-1.936 1.574-5.415-1.045-6.6L8.052 203.644c-3.134-1.418-3.134-5.87 0-7.288l38.258-17.315c2.619-1.185 3.17-4.664 1.045-6.6l-31.035-28.29c-2.542-2.318-1.167-6.551 2.253-6.932l41.736-4.645c2.857-.318 4.456-3.456 3.034-5.954L42.569 90.124c-1.702-2.99.914-6.591 4.284-5.896l41.128 8.479c2.816.58 5.306-1.91 4.726-4.725l-8.48-41.13c-.694-3.369 2.907-5.985 5.897-4.283l36.496 20.773c2.498 1.422 5.636-.176 5.954-3.033l4.645-41.736c.381-3.42 4.614-4.795 6.932-2.253l28.29 31.035c1.936 2.125 5.415 1.574 6.6-1.045l17.315-38.258Z" />
  <path fill="#000"
    d="M147.6 169c-1.646 0-3.09-.367-4.332-1.102-1.241-.735-2.204-1.71-2.888-2.926-.684-1.216-1.026-2.559-1.026-4.028V142.4h6.384v19c0 .608.216 1.14.646 1.596.431.456.963.684 1.596.684h7.03V169h-7.41Zm3.769 0 8.626-23.522c.43-1.165 1.14-2.039 2.128-2.622.988-.608 2.102-.912 3.344-.912 1.241 0 2.356.291 3.344.874.988.557 1.697 1.431 2.128 2.622l8.664 23.56h-6.878l-1.672-5.13h-11.286l-1.748 5.13h-6.65Zm10.032-10.412h8.018l-3.382-10.602c-.051-.152-.127-.253-.228-.304a.412.412 0 0 0-.304-.114.554.554 0 0 0-.342.114.574.574 0 0 0-.152.304l-3.61 10.602ZM191.822 169c-1.622 0-3.053-.355-4.294-1.064a8.194 8.194 0 0 1-2.888-2.926c-.684-1.216-1.026-2.571-1.026-4.066V147.72h-7.22v-5.32h20.786v5.32h-7.182v13.794c0 .583.202 1.089.608 1.52.405.431.912.646 1.52.646h2.09V169h-2.394Zm15.357 0c-1.494 0-2.85-.342-4.066-1.026a8.415 8.415 0 0 1-2.926-2.812c-.709-1.191-1.064-2.533-1.064-4.028 0-1.115.241-2.153.722-3.116a8.229 8.229 0 0 1 2.014-2.546 7.86 7.86 0 0 1-1.938-2.432 6.689 6.689 0 0 1-.684-2.964c0-1.469.355-2.774 1.064-3.914a7.59 7.59 0 0 1 2.85-2.736c1.191-.684 2.508-1.026 3.952-1.026h11.21v5.358l-10.222-.038a2.67 2.67 0 0 0-1.33.342 2.855 2.855 0 0 0-.988.912c-.228.38-.342.823-.342 1.33 0 .481.114.925.342 1.33.254.38.583.684.988.912a2.93 2.93 0 0 0 1.33.304h8.93v5.32h-8.74c-.532 0-1.013.127-1.444.38-.43.253-.772.583-1.026.988-.253.405-.38.874-.38 1.406 0 .507.127.975.38 1.406a2.66 2.66 0 0 0 1.026.95c.431.228.912.342 1.444.342h10.032V169h-11.134Zm15.089 0v-5.32h11.362a2.53 2.53 0 0 0 1.368-.38c.406-.253.722-.583.95-.988.254-.405.38-.849.38-1.33a2.52 2.52 0 0 0-.38-1.368 2.724 2.724 0 0 0-.95-.988 2.53 2.53 0 0 0-1.368-.38h-4.104c-1.545 0-2.951-.304-4.218-.912a7.37 7.37 0 0 1-3.04-2.66c-.734-1.191-1.102-2.609-1.102-4.256 0-1.621.355-3.027 1.064-4.218a7.418 7.418 0 0 1 2.888-2.774c1.216-.684 2.559-1.026 4.028-1.026h11.742v5.32h-11.02c-.456 0-.874.114-1.254.342-.38.228-.671.532-.874.912a2.63 2.63 0 0 0-.304 1.254c0 .456.102.874.304 1.254.203.355.494.646.874.874.38.228.798.342 1.254.342h4.294c1.698 0 3.167.329 4.408.988 1.267.633 2.242 1.533 2.926 2.698.71 1.14 1.064 2.483 1.064 4.028 0 1.824-.367 3.382-1.102 4.674-.709 1.267-1.672 2.242-2.888 2.926-1.216.659-2.558.988-4.028.988h-12.274Zm37.501 0c-1.621 0-3.053-.355-4.294-1.064a8.194 8.194 0 0 1-2.888-2.926c-.684-1.216-1.026-2.571-1.026-4.066V147.72h-7.22v-5.32h20.786v5.32h-7.182v13.794c0 .583.203 1.089.608 1.52.405.431.912.646 1.52.646h2.09V169h-2.394ZM109.99 214v-26.6h11.438c1.774 0 3.395.405 4.864 1.216a9.347 9.347 0 0 1 3.572 3.382c.887 1.419 1.33 3.065 1.33 4.94 0 1.875-.443 3.547-1.33 5.016a9.424 9.424 0 0 1-3.534 3.382c-1.469.811-3.103 1.216-4.902 1.216h-5.054V214h-6.384Zm6.384-12.806h4.332c.76 0 1.444-.165 2.052-.494a3.857 3.857 0 0 0 1.482-1.444c.38-.633.57-1.393.57-2.28 0-.887-.19-1.647-.57-2.28a3.78 3.78 0 0 0-1.52-1.444 3.92 3.92 0 0 0-2.014-.532h-4.332v8.474ZM134.445 214v-26.6h12.16c1.799 0 3.433.393 4.902 1.178 1.495.785 2.673 1.875 3.534 3.268.887 1.393 1.33 3.002 1.33 4.826 0 1.697-.405 3.23-1.216 4.598a9.827 9.827 0 0 1-3.192 3.268l2.128 3.61c.127.177.266.317.418.418.178.101.406.152.684.152h2.356V214h-3.724c-1.14 0-2.178-.266-3.116-.798-.937-.557-1.672-1.279-2.204-2.166l-2.85-5.054h-4.826V214h-6.384Zm6.384-13.3h5.054c.735 0 1.419-.152 2.052-.456a3.67 3.67 0 0 0 1.482-1.368c.38-.608.57-1.33.57-2.166 0-.836-.19-1.545-.57-2.128a3.595 3.595 0 0 0-1.52-1.368 4.163 4.163 0 0 0-2.014-.494h-5.054v7.98Zm32.475 13.794c-2.128 0-4.053-.355-5.776-1.064-1.723-.709-3.205-1.697-4.446-2.964a13.586 13.586 0 0 1-2.888-4.408c-.659-1.672-.988-3.471-.988-5.396 0-1.925.329-3.724.988-5.396a13.449 13.449 0 0 1 2.85-4.37c1.241-1.267 2.723-2.242 4.446-2.926 1.748-.709 3.686-1.064 5.814-1.064 2.103 0 4.015.355 5.738 1.064 1.748.684 3.23 1.659 4.446 2.926 1.241 1.241 2.204 2.711 2.888 4.408.684 1.672 1.026 3.458 1.026 5.358 0 1.925-.342 3.724-1.026 5.396a13.586 13.586 0 0 1-2.888 4.408c-1.216 1.267-2.698 2.255-4.446 2.964-1.723.709-3.635 1.064-5.738 1.064Zm0-5.434c1.115 0 2.141-.203 3.078-.608a7.28 7.28 0 0 0 2.47-1.786 8.278 8.278 0 0 0 1.596-2.66c.38-1.039.57-2.153.57-3.344 0-1.191-.19-2.293-.57-3.306a8.278 8.278 0 0 0-1.596-2.66 6.853 6.853 0 0 0-2.47-1.748c-.937-.431-1.963-.646-3.078-.646-1.14 0-2.179.215-3.116.646a7.32 7.32 0 0 0-2.47 1.748c-.684.76-1.216 1.659-1.596 2.698a9.816 9.816 0 0 0-.532 3.268c0 1.191.177 2.305.532 3.344.38 1.013.912 1.9 1.596 2.66a7.813 7.813 0 0 0 2.47 1.786c.937.405 1.976.608 3.116.608Zm21.919 13.262c-1.545 0-2.85-.291-3.914-.874-1.038-.583-1.824-1.381-2.356-2.394-.532-1.013-.798-2.166-.798-3.458 0-1.292.254-2.66.76-4.104.507-1.469 1.343-2.913 2.508-4.332 1.191-1.419 2.787-2.736 4.788-3.952V192.72h-5.282v-5.32h11.324v26.904c0 1.596-.253 2.989-.76 4.18-.506 1.216-1.279 2.153-2.318 2.812-1.038.684-2.356 1.026-3.952 1.026Zm-.342-5.472c.304 0 .57-.089.798-.266.228-.177.393-.431.494-.76.127-.304.19-.671.19-1.102v-5.814c-.988.811-1.697 1.609-2.128 2.394-.405.76-.658 1.444-.76 2.052a12.309 12.309 0 0 0-.114 1.444c0 .659.152 1.165.456 1.52.304.355.659.532 1.064.532Zm19.108-2.85c-1.495 0-2.85-.342-4.066-1.026a8.415 8.415 0 0 1-2.926-2.812c-.709-1.191-1.064-2.533-1.064-4.028 0-1.115.241-2.153.722-3.116a8.229 8.229 0 0 1 2.014-2.546 7.831 7.831 0 0 1-1.938-2.432 6.689 6.689 0 0 1-.684-2.964c0-1.469.355-2.774 1.064-3.914a7.576 7.576 0 0 1 2.85-2.736c1.191-.684 2.508-1.026 3.952-1.026h11.21v5.358l-10.222-.038c-.481 0-.925.114-1.33.342a2.846 2.846 0 0 0-.988.912c-.228.38-.342.823-.342 1.33 0 .481.114.925.342 1.33.253.38.583.684.988.912.405.203.849.304 1.33.304h8.93v5.32h-8.74c-.532 0-1.013.127-1.444.38a2.946 2.946 0 0 0-1.026.988c-.253.405-.38.874-.38 1.406 0 .507.127.975.38 1.406.253.405.595.722 1.026.95.431.228.912.342 1.444.342h10.032V214h-11.134Zm27.857 0c-2.179-.025-4.142-.38-5.89-1.064-1.748-.684-3.23-1.621-4.446-2.812a12.421 12.421 0 0 1-2.812-4.18c-.659-1.621-.988-3.369-.988-5.244 0-1.875.329-3.61.988-5.206a12.334 12.334 0 0 1 2.812-4.218c1.241-1.191 2.723-2.128 4.446-2.812 1.748-.684 3.711-1.039 5.89-1.064h4.104v5.32h-3.952c-1.191.025-2.28.241-3.268.646a7.763 7.763 0 0 0-2.508 1.672 7.571 7.571 0 0 0-1.596 2.508c-.355.963-.532 2.014-.532 3.154 0 1.14.177 2.191.532 3.154.38.963.912 1.799 1.596 2.508a7.763 7.763 0 0 0 2.508 1.672c.988.405 2.077.621 3.268.646h3.952V214h-4.104Zm21.393 0c-1.622 0-3.053-.355-4.294-1.064a8.194 8.194 0 0 1-2.888-2.926c-.684-1.216-1.026-2.571-1.026-4.066V192.72h-7.22v-5.32h20.786v5.32h-7.182v13.794c0 .583.202 1.089.608 1.52.405.431.912.646 1.52.646h2.09V214h-2.394Zm8.403 0v-5.32h11.362a2.53 2.53 0 0 0 1.368-.38c.406-.253.722-.583.95-.988.254-.405.38-.849.38-1.33a2.52 2.52 0 0 0-.38-1.368 2.724 2.724 0 0 0-.95-.988 2.53 2.53 0 0 0-1.368-.38H278.9c-1.545 0-2.951-.304-4.218-.912a7.37 7.37 0 0 1-3.04-2.66c-.734-1.191-1.102-2.609-1.102-4.256 0-1.621.355-3.027 1.064-4.218a7.418 7.418 0 0 1 2.888-2.774c1.216-.684 2.559-1.026 4.028-1.026h11.742v5.32h-11.02c-.456 0-.874.114-1.254.342-.38.228-.671.532-.874.912a2.63 2.63 0 0 0-.304 1.254c0 .456.102.874.304 1.254.203.355.494.646.874.874.38.228.798.342 1.254.342h4.294c1.698 0 3.167.329 4.408.988 1.267.633 2.242 1.533 2.926 2.698.71 1.14 1.064 2.483 1.064 4.028 0 1.824-.367 3.382-1.102 4.674-.709 1.267-1.672 2.242-2.888 2.926-1.216.659-2.558.988-4.028.988h-12.274ZM97.986 259v-26.6h15.427c1.318 0 2.508.291 3.572.874a6.625 6.625 0 0 1 2.584 2.432c.659 1.039.988 2.267.988 3.686 0 .836-.164 1.634-.494 2.394a5.94 5.94 0 0 1-1.33 2.014 6.665 6.665 0 0 1-1.938 1.406 6.905 6.905 0 0 1 2.28 1.52 7.144 7.144 0 0 1 1.596 2.28c.406.861.608 1.786.608 2.774 0 1.444-.342 2.711-1.026 3.8a6.936 6.936 0 0 1-2.66 2.546c-1.114.583-2.356.874-3.724.874H97.986Zm6.383-5.282h7.828c.532 0 1.001-.127 1.406-.38a2.835 2.835 0 0 0 1.026-1.026c.254-.431.38-.899.38-1.406 0-.532-.126-1.001-.38-1.406a2.835 2.835 0 0 0-1.026-1.026c-.405-.253-.874-.38-1.406-.38h-7.828v5.624Zm0-10.716h7.182c.507 0 .95-.114 1.33-.342a2.83 2.83 0 0 0 .95-.95c.228-.405.342-.849.342-1.33 0-.507-.114-.95-.342-1.33a2.444 2.444 0 0 0-.95-.95c-.38-.253-.823-.38-1.33-.38h-7.182v5.282ZM124.964 259v-26.6h12.16c1.799 0 3.433.393 4.902 1.178 1.495.785 2.673 1.875 3.534 3.268.887 1.393 1.33 3.002 1.33 4.826 0 1.697-.405 3.23-1.216 4.598a9.846 9.846 0 0 1-3.192 3.268l2.128 3.61c.127.177.266.317.418.418.177.101.405.152.684.152h2.356V259h-3.724c-1.14 0-2.179-.266-3.116-.798-.937-.557-1.672-1.279-2.204-2.166l-2.85-5.054h-4.826V259h-6.384Zm6.384-13.3h5.054c.735 0 1.419-.152 2.052-.456a3.684 3.684 0 0 0 1.482-1.368c.38-.608.57-1.33.57-2.166 0-.836-.19-1.545-.57-2.128a3.601 3.601 0 0 0-1.52-1.368 4.163 4.163 0 0 0-2.014-.494h-5.054v7.98Zm17.089 13.3 8.626-23.522c.431-1.165 1.14-2.039 2.128-2.622.988-.608 2.103-.912 3.344-.912 1.241 0 2.356.291 3.344.874.988.557 1.697 1.431 2.128 2.622l8.664 23.56h-6.878l-1.672-5.13h-11.286l-1.748 5.13h-6.65Zm10.032-10.412h8.018l-3.382-10.602c-.051-.152-.127-.253-.228-.304a.41.41 0 0 0-.304-.114.554.554 0 0 0-.342.114.574.574 0 0 0-.152.304l-3.61 10.602Zm38.704 10.868c-1.596 0-3.028-.342-4.294-1.026a7.92 7.92 0 0 1-3.002-2.926c-.735-1.241-1.102-2.647-1.102-4.218v-11.628c0-.405-.102-.773-.304-1.102a2.416 2.416 0 0 0-.798-.798 2.06 2.06 0 0 0-1.102-.304c-.406 0-.773.101-1.102.304-.33.203-.596.469-.798.798a2.28 2.28 0 0 0-.266 1.102V259h-6.232v-18.886c0-1.596.354-3.002 1.064-4.218a8.008 8.008 0 0 1 3.002-2.888c1.292-.709 2.736-1.064 4.332-1.064 1.621 0 3.065.355 4.332 1.064a8.023 8.023 0 0 1 3.002 2.888c.734 1.216 1.102 2.622 1.102 4.218v11.628c0 .405.101.785.304 1.14.202.329.456.595.76.798.329.177.684.266 1.064.266.405 0 .772-.089 1.102-.266.354-.203.633-.469.836-.798a2.27 2.27 0 0 0 .304-1.14V232.4h6.194v18.886c0 1.571-.368 2.977-1.102 4.218a7.935 7.935 0 0 1-3.002 2.926c-1.267.684-2.698 1.026-4.294 1.026Zm25.729-.456c-2.179-.025-4.142-.38-5.89-1.064-1.748-.684-3.23-1.621-4.446-2.812a12.407 12.407 0 0 1-2.812-4.18c-.659-1.621-.988-3.369-.988-5.244 0-1.875.329-3.61.988-5.206a12.32 12.32 0 0 1 2.812-4.218c1.241-1.191 2.723-2.128 4.446-2.812 1.748-.684 3.711-1.039 5.89-1.064h4.104v5.32h-3.952c-1.191.025-2.28.241-3.268.646a7.763 7.763 0 0 0-2.508 1.672 7.571 7.571 0 0 0-1.596 2.508c-.355.963-.532 2.014-.532 3.154 0 1.14.177 2.191.532 3.154.38.963.912 1.799 1.596 2.508a7.763 7.763 0 0 0 2.508 1.672c.988.405 2.077.621 3.268.646h3.952V259h-4.104Zm7.712 0v-26.6h6.384v10.45h10.374V232.4h6.384V259h-6.384v-10.83h-10.374V259h-6.384Zm34.901 0c-1.494 0-2.85-.342-4.066-1.026a8.415 8.415 0 0 1-2.926-2.812c-.709-1.191-1.064-2.533-1.064-4.028 0-1.115.241-2.153.722-3.116a8.229 8.229 0 0 1 2.014-2.546 7.86 7.86 0 0 1-1.938-2.432 6.689 6.689 0 0 1-.684-2.964c0-1.469.355-2.774 1.064-3.914a7.59 7.59 0 0 1 2.85-2.736c1.191-.684 2.508-1.026 3.952-1.026h11.21v5.358l-10.222-.038a2.67 2.67 0 0 0-1.33.342 2.855 2.855 0 0 0-.988.912c-.228.38-.342.823-.342 1.33 0 .481.114.925.342 1.33.254.38.583.684.988.912a2.93 2.93 0 0 0 1.33.304h8.93v5.32h-8.74c-.532 0-1.013.127-1.444.38-.43.253-.772.583-1.026.988-.253.405-.38.874-.38 1.406 0 .507.127.975.38 1.406a2.66 2.66 0 0 0 1.026.95c.431.228.912.342 1.444.342h10.032V259h-11.134Zm14.937 0v-26.6h9.766c2.812 0 5.244.57 7.296 1.71 2.078 1.14 3.686 2.711 4.826 4.712 1.166 2.001 1.748 4.294 1.748 6.878 0 2.584-.582 4.877-1.748 6.878-1.14 2.001-2.748 3.572-4.826 4.712-2.052 1.14-4.484 1.71-7.296 1.71h-9.766Zm6.384-5.32h3.23c1.47 0 2.774-.317 3.914-.95a7.02 7.02 0 0 0 2.736-2.774c.659-1.191.988-2.609.988-4.256 0-1.647-.329-3.065-.988-4.256-.658-1.191-1.57-2.103-2.736-2.736-1.14-.659-2.444-.988-3.914-.988h-3.23v15.96Z" />
</svg>