<svg viewBox="0 0 137 192" fill="none" xmlns="http://www.w3.org/2000/svg">
    <path
        d="M61.496 185.804c.334.273.17.495.063.703-.671 1.288-1.749 2.009-3.168 2.242-1.307.215-2.61.143-3.909-.049-.627-.091-1.25-.191-1.894-.29-.206.293-.395.566-.591.837-.43.599-.933 1.12-1.562 1.513-.823.514-1.679.575-2.565.164a5.16 5.16 0 0 1-1.732-1.31c-.716-.827-1.302-1.739-1.653-2.777-.164-.479-.44-.725-.947-.816-1.148-.206-2.01-.87-2.663-1.814-.255-.367-.48-.758-.692-1.153-.126-.236-.28-.341-.559-.376-2.875-.356-5.747-.73-8.62-1.092-.51-.063-.884-.274-1.057-.779-.187-.542-.023-.977.365-1.374.405-.412.795-.842 1.165-1.286.163-.197.29-.44.383-.681.217-.568-.08-1.033-.692-1.04a4.273 4.273 0 0 0-1.16.166 7.4 7.4 0 0 0-1.25.486c-2.051 1.003-4.207 1.403-6.48 1.16-.315-.033-.635-.028-.95-.049-.641-.045-1.088-.351-1.308-.97-.142-.4-.296-.798-.46-1.233-.18.082-.318.131-.442.204-.512.304-1 .257-1.466-.089-.556-.412-1.103-.835-1.658-1.251-.554-.416-1.108-.827-1.662-1.241a10.94 10.94 0 0 0-4.697-2.016c-1.718-.304-3.1-1.145-4.175-2.511-1.485-1.884-2.392-4.042-2.995-6.34-.655-2.492-.921-5.036-.924-7.606-.002-2.41.075-4.823.103-7.233.028-2.563.04-5.123.054-7.685.02-3.703.049-7.404.056-11.108.002-1.608-.037-3.214-.056-4.823-.003-.243-.01-.489.016-.729.105-.964 1.06-1.422 1.866-.884.308.206.57.481.846.732.29.261.57.53.928.862.021-.217.057-.353.045-.484-.075-.724-.147-1.449-.243-2.172a5.326 5.326 0 0 1 .43-2.955c.07-.152.12-.315.196-.465.753-1.452.907-2.974.615-4.575-.591-3.236-1.169-6.472-2.03-9.649-.291-1.083-.623-2.153-.955-3.224-.384-1.24-.978-2.383-1.64-3.495a53.791 53.791 0 0 1-1.21-2.15c-.487-.916-.463-1.87-.106-2.821a2.09 2.09 0 0 1 1.01-1.16c.68-.35 1.354-.724 2.067-1 3.92-1.525 7.222-3.884 9.873-7.161a103.96 103.96 0 0 1 3.173-3.708c.62-.697 1.305-1.338 1.964-2 .17-.17.35-.33.55-.516-.6-.496-.707-1.139-.695-1.836.035-2.02.068-4.037.077-6.057.012-2.621-.393-5.172-1.293-7.643-1.152-3.168-3.133-5.663-5.95-7.512a40.543 40.543 0 0 1-2.66-1.87c-1.62-1.253-2.243-2.93-1.978-4.952.112-.86.528-1.55 1.17-2.109a16.3 16.3 0 0 1 1.364-1.078c1.012-.701 1.548-1.622 1.531-2.88-.014-1.082.477-1.983 1.209-2.754.837-.882 1.69-1.749 2.51-2.644.34-.37.632-.786.915-1.202.218-.32.21-.48-.058-.753-.669-.685-1.064-1.529-1.436-2.39-.75-1.732-1.522-3.455-2.249-5.194-.283-.678-.676-1.1-1.459-1.052-.199.011-.407-.054-.605-.103-.494-.12-.753-.46-.851-.938-.096-.465.04-.85.425-1.136.196-.145.402-.273.596-.418 1.321-.978 2.062-2.294 2.238-3.921.086-.8.124-1.604.203-2.404.05-.495-.14-.862-.517-1.169-.94-.764-1.73-1.667-2.223-2.78-1.04-2.342-1.232-4.724-.161-7.114.951-2.12 2.609-3.357 4.881-3.797 1.969-.38 3.91-.166 5.838.286 2.488.58 4.86 1.472 7.147 2.606l.505.243c1.202.585 2.397.59 3.622.029a83.238 83.238 0 0 1 3.614-1.53 13.97 13.97 0 0 1 1.6-.507c.867-.231 1.627.003 2.27.615 1.353 1.29 2.723 2.565 4.047 3.883 2.197 2.193 4.362 4.417 6.541 6.628l.12.12c.629.652.706 1.087.315 1.922a6.628 6.628 0 0 0-.573 1.933c.365.052.707.112 1.05.147.599.061 1.073.325 1.387.837.794 1.293 1.963 1.836 3.453 1.763.262-.011.523-.01.785-.02 1.034-.045 1.85.373 2.488 1.166.15.187.297.376.521.661.127-.516.23-.925.33-1.337.06-.255.098-.517.187-.76.31-.841 1.477-1.092 2.008-.374.933 1.258 1.532 2.654 1.316 4.281-.067.512-.238.991-.572 1.382-.9 1.05-1.071 2.27-.896 3.581.061.463.136.924.208 1.387.087.563.367.975.94 1.136.508.143.709.5.741.998.033.508-.09.926-.58 1.174-.397.201-.792.412-1.257.652.161.239.294.454.444.655.526.704 1.07 1.393 1.585 2.107.788 1.094.762 1.552-.094 2.585-.142.173-.285.344-.47.566 1.523 1.466 1.8 3.2.994 5.181.297 0 .515.01.734-.002 1.16-.054 2.32-.07 3.458.21.164.04.33.077.484.138.45.175.688.503.673.991a2.094 2.094 0 0 1-.056.5c-.166.59.064 1.02.524 1.364.33.245.662.488.998.725 1.197.843 2.114 1.89 2.467 3.357.016.068.075.126.133.222.173-.143.337-.264.484-.402.823-.77 1.77-1.307 2.873-1.56.054-.011.108-.03.162-.046 1.07-.304 1.665-1.017 1.812-2.114.068-.5.105-1.005.194-1.5.187-1.044 1.061-1.427 1.973-.882 1.008.598 1.538.465 2.074-.587.208-.412.337-.87.458-1.319.18-.666.313-1.346.477-2.017.21-.863.556-1.663 1.122-2.36.335-.41.332-.446-.02-.855-.52-.603-.852-1.267-.786-2.09.03-.388.147-.732.42-1.013 1.943-2.003 2.944-4.47 3.522-7.144.05-.239.086-.48.156-.711.129-.433.419-.7.872-.767.496-.075.94 0 1.23.46.12.19.215.393.304.6.488 1.11.963 2.23 1.463 3.335.344.763.398 1.466-.222 2.128-.133.143-.217.355-.26.55-.19.874-.385 1.75-.532 2.634-.17 1.027.105 1.964.697 2.81.374.538.764 1.062 1.129 1.607.554.827.657 1.732.395 2.684-.143.521-.444.942-.856 1.288l-.507.423c.313.648.664.83 1.302.643.393-.115.776-.274 1.155-.433 1.209-.505 2.408-.43 3.603.042.53.21.856.597.914 1.174.056.545-.21.935-.64 1.225-.744.5-1.497.992-2.245 1.485-.311.206-.622.414-.97.648.24 1.683-.241 3.093-1.76 4.084.284.96.64 1.868 1.449 2.478.327.248.769.377 1.178.484.886.234 1.136.489 1.122 1.396a751.933 751.933 0 0 1-.138 6.897 3.753 3.753 0 0 1-.58 1.966c-.29.454-.42.952-.409 1.492.007.318.014.636-.004.954-.03.533.065 1.035.27 1.531.342.83.24 1.195-.453 1.758-.117.094-.238.182-.357.271-.454.34-.48.36-.32.88.097.317.247.624.413.913.283.492.73.788 1.295.735 1.106-.105 1.65 1.08 1.043 1.943-.416.593-.484 1.215-.355 1.919.175.954.29 1.92.395 2.885.033.316.145.472.446.538.218.047.442.103.632.21.699.393.85 1.3.28 1.856-.376.365-.502.753-.435 1.258.085.615-.081 1.193-.395 1.719-.278.465-.4.96-.425 1.491-.028.58-.066 1.158-.096 1.735-.045.818-.414 1.426-1.165 1.775-.74.343-1.456.285-2.115-.204-.225-.166-.426-.364-.63-.556-.245-.232-.474-.48-.72-.709-.635-.593-.748-.596-1.318-.025-.704.703-1.468.584-2.018-.255-.275-.421-.514-.863-.79-1.33-.152.074-.283.133-.404.203-.5.292-.996.594-1.497.886a6.909 6.909 0 0 1-2.408.877c-.958.156-1.77-.096-2.462-.774-.437-.428-.886-.844-1.377-1.31-.343.618-.794 1.15-1.547 1.315-.704.154-1.35-.166-2.111-.288.084.278.15.484.21.69.06.215.14.428.17.647.094.662-.194 1.097-.853 1.228-.55.11-1.11.156-1.664.229-.389.049-.777.093-1.202.145-.66 1.655-.772 3.294.042 4.93.32.644.767 1.191 1.262 1.707a53.61 53.61 0 0 1 1.737 1.908c.244.281.456.594.644.917.886 1.529.694 2.934-.37 4.329-.374.491-.881.674-1.49.564-.287-.052-.572-.115-.874-.178.122 1.083.978 1.485 1.796.891a5.13 5.13 0 0 0 1.32-1.438c.179-.285.354-.575.564-.837.615-.767 1.368-.788 1.978-.028 1.359 1.695 1.87 3.589 1.272 5.723-.065.234-.14.466-.217.695-.136.411-.07.774.26 1.073.151.138.29.297.457.414 1.071.753 2.112 1.55 3.302 2.113.982.466 1.94.966 2.756 1.707.157.143.386.227.596.285.463.133.933.232 1.433.353.033-.154.057-.341.115-.514.161-.475.274-.98.524-1.405a4.522 4.522 0 0 0 .631-2.404c-.005-.615-.002-1.236.082-1.844.374-2.719 3.364-4.361 5.859-3.222.35.159.687.39.968.655.594.561.587 1.536.025 2.127a1.26 1.26 0 0 1-.954.4c-.317 0-.638-.007-.953.021-.599.056-.86.327-.807.914.058.65.154 1.3.297 1.936.14.636.514.902 1.225.938 1.157.053 2.32.144 3.474.119 8.377-.197 16.756-.176 25.133-.183 2.226-.002 4.452-.035 6.678-.035.465 0 .937.038 1.391.129 1.108.222 1.837.884 2.113 1.994.311 1.246.183 2.45-.402 3.598-.606 1.188-1.618 1.768-2.915 1.903-.428.045-.856.085-1.286.115-.342.023-.613.152-.779.463-.206.383-.547.605-.933.769-.774.33-1.543.673-2.324.982-.673.267-1.157.657-1.248 1.433a.74.74 0 0 1-.327.486c-.587.337-.929.859-1.19 1.448-.428.961-1.078 1.741-1.88 2.41-.295.246-.601.412-1.001.451a.936.936 0 0 0-.594.353c-.619.872-1.489 1.261-2.508 1.429-.4.065-.802.194-1.172.365-.607.278-1.229.399-1.893.439-3.276.204-6.542.035-9.806-.215-3.953-.304-7.91-.617-11.877-.463-2.744.105-5.492.25-8.232.456-1.618.122-3.228.365-4.767.949-.516.197-.774.482-.806 1.062-.047.823-.325 1.092-1.13 1.199-.544.073-.837.36-.946.877-.15.694-.295 1.389-.459 2.081a6.634 6.634 0 0 1-.31 1.014c-.543 1.3-1.558 1.99-2.937 2.09-.722.054-1.457.007-2.181-.06-1.123-.103-2.07.182-2.808 1.063-.444.531-.896 1.055-1.342 1.583a7.613 7.613 0 0 1-3.007 2.189 16.705 16.705 0 0 0-5.005 3.151 10.865 10.865 0 0 1-3.044 1.973 5.054 5.054 0 0 0-1.99 1.513c-.832 1.045-1.751 1.992-2.855 2.756a2.188 2.188 0 0 0-.923 1.424c-.155.795-.183 1.59.053 2.46.27-.094.527-.138.737-.267a6.22 6.22 0 0 0 .895-.668c2.048-1.808 4.033-3.678 5.904-5.672 2.41-2.57 5.192-4.681 8.255-6.411 4.293-2.424 8.77-4.433 13.507-5.84a18.798 18.798 0 0 1 6.82-.737c1.928.145 3.745.655 5.402 1.691.86.537 1.319 1.295 1.429 2.286.19 1.707.016 3.374-.709 4.936-.981 2.118-2.012 4.215-3.275 6.191a6.858 6.858 0 0 1-2.466 2.314c-.954.538-1.855.456-2.703-.245-.227-.187-.45-.379-.732-.62-.087.26-.154.447-.21.636-.304 1.022-.657 2.027-1.172 2.967-.318.584-.725 1.087-1.307 1.433-1.042.62-2.092.526-2.995-.287-.374-.337-.722-.7-1.147-1.116-.377.87-.77 1.691-1.078 2.544-.105.292-.021.666.02.996.155 1.237-.247 2.242-1.222 3.016-.398.316-.844.493-1.358.346-.27-.077-.47.037-.685.15-.676.348-.922.32-1.413-.255-.4-.468-.752-.977-1.126-1.468l-.274-.358c-.1.329-.187.591-.264.856a15.593 15.593 0 0 1-1.167 2.969c-.367.696-.879 1.251-1.608 1.58-.685.311-1.373.33-2.06.01-.15-.071-.302-.134-.507-.223-.087.37-.022.692.009 1.017.098 1.041.25 2.084.255 3.126.004.718-.131 1.457-.328 2.151-.378 1.345-1.55 1.789-2.784 1.125-.587-.313-.968-.809-1.25-1.396-.16-.327-.335-.645-.506-.968l-.11.028c-.04.192-.082.381-.117.573-.107.556-.397 1.003-.83 1.358-.645.531-1.388.613-2.073.131-1.487-1.047-2.282-2.494-2.294-4.327-.005-.683.372-1.158.987-1.438.505-.229.757-.15 1 .348.285.587.545 1.188.816 1.784.232.51.46 1.022.7 1.529.079.168.158.351.287.477.12.117.334.257.456.222.135-.04.255-.257.308-.421.05-.149.024-.334-.004-.498-.265-1.526-.529-3.053-.81-4.577-.119-.65-.067-1.233.494-1.672.4-.313.61-.274.818.187.162.358.293.727.438 1.092.563 1.426 1.098 2.861 1.7 4.269.254.596.64 1.136.972 1.697.047.08.12.145.187.208.393.349.727.279.9-.215.084-.243.164-.514.145-.764-.152-1.899-.297-3.802-.512-5.693-.082-.718-.337-1.415-.526-2.118-.168-.622-.253-1.251-.14-1.887.273-1.543 1.819-2.773 3.392-2.721 1.008.032 1.606.762 1.457 1.762-.122.807-.51 1.434-1.205 1.868-.409.258-.822.51-1.25.777.138.776.453 1.435 1.02 1.961.502.468 1.007.444 1.467-.068a5.06 5.06 0 0 0 1.062-1.893c.255-.821.498-1.646.722-2.474.175-.641.052-1.262-.222-1.854-.227-.491-.474-.975-.697-1.468-.795-1.756-1.56-3.526-1.877-5.443-.131-.788-.166-1.599-.178-2.399-.004-.339.126-.699.27-1.019.364-.821 1.276-1.071 2.008-.543.261.19.476.473.652.753.902 1.447 1.382 3.058 1.767 4.702.309 1.312.496 2.644.582 3.989.02.278.064.554.103.918.145-.149.248-.243.337-.348.713-.83 1.531-1.057 2.567-.704.105.035.208.082.316.117.341.117.612.038.839-.255a4.884 4.884 0 0 0 .966-2.242c.035-.213-.03-.444-.066-.664-.203-1.318.044-2.508 1.078-3.425.776-.69 1.686-1.029 2.742-.797.578.126.9.486.996 1.071.131.802-.107 1.498-.668 2.048-.356.346-.802.601-1.218.879-.166.112-.36.18-.557.273.14.774.442 1.426.968 1.957.55.554 1.12.545 1.564-.082.353-.498.683-1.038.893-1.606.35-.944.592-1.926.889-2.892.154-.505.063-.998-.021-1.499a6.905 6.905 0 0 1 .035-2.508c.287-1.445 1.763-2.177 2.87-2.104.487.032.856.262 1.039.729.133.344-.003.547-.367.571-.129.007-.26-.033-.39-.033-.705-.002-1.172.395-1.254 1.099-.154 1.302.166 2.487.95 3.539.387.519.689.566 1.243.211a4.47 4.47 0 0 0 1.625-1.817c.559-1.138.844-2.338.93-3.61.057-.809.295-1.61.492-2.405.151-.615.38-1.211.551-1.824.346-1.241 0-2.188-1.061-2.925-.776-.54-1.679-.711-2.588-.841-2.23-.321-4.398.044-6.542.619-2.7.725-5.256 1.831-7.795 2.974-3.542 1.594-6.899 3.5-9.92 5.964a38.143 38.143 0 0 0-4.154 3.928c-1.864 2.057-3.855 3.97-6.16 5.536-.688.465-1.425.73-2.247.774-.84.045-1.375-.252-1.675-1.033-.67-1.751-.748-3.535-.15-5.324a3.87 3.87 0 0 1 1.364-1.882 16.583 16.583 0 0 0 2.88-2.817 6.097 6.097 0 0 1 2.448-1.828 9.507 9.507 0 0 0 2.813-1.815 17.378 17.378 0 0 1 5.13-3.271c1.082-.444 1.975-1.122 2.737-1.994.53-.605 1.052-1.218 1.608-1.795 1.137-1.181 2.53-1.578 4.143-1.361.627.084 1.267.082 1.901.065.596-.016.994-.381 1.167-1.035.17-.65.297-1.312.446-1.967.059-.254.138-.505.199-.757.196-.8.65-1.421 1.316-1.891a3.32 3.32 0 0 0 .95-1.015c.4-.662 1.005-1.092 1.692-1.424 1.097-.526 2.277-.708 3.465-.872 5.18-.715 10.395-.877 15.615-.779 2.205.043 4.403.274 6.607.386 1.737.089 3.475.134 5.214.185 1.178.035 2.357.04 3.533.072a5.855 5.855 0 0 0 2.462-.437c.441-.184.935-.252 1.412-.334.435-.075.757-.215.926-.683.086-.241.327-.46.551-.608.402-.264.826-.53 1.277-.68.682-.224 1.155-.634 1.517-1.241.44-.737.938-1.438 1.405-2.156.082-.124.15-.257.211-.395a3.275 3.275 0 0 1 1.643-1.693c.643-.304 1.291-.594 1.938-.884.552-.245 1.055-.554 1.462-1.017.533-.605 1.276-.738 2.02-.851.516-.079 1.035-.142 1.554-.219.522-.078.849-.382.947-.896.077-.402.145-.811.173-1.22.031-.452-.152-.676-.608-.704a29.45 29.45 0 0 0-2.183-.051c-1.927.018-3.851.07-5.777.084-6.247.039-12.492.056-18.739.105-2.357.019-4.711.14-7.065.147-1.022.005-2.05-.124-3.068-.255-.991-.128-1.711-.703-2.202-1.566-.066-.112-.129-.227-.199-.337-.019-.028-.06-.039-.138-.084-.561.886-1.09 1.777-1.04 2.883.025.622-.019 1.232-.241 1.821-.442 1.164-1.464 1.737-2.682 1.489-.626-.128-1.113-.47-1.365-1.056-.295-.681-.741-1.197-1.387-1.562-.208-.117-.383-.297-.568-.456-.47-.409-.984-.734-1.596-.902a2.74 2.74 0 0 1-.707-.332c-.984-.613-1.961-1.235-2.94-1.857-.85-.54-1.527-1.253-2.103-2.074-.51-.727-.591-1.459-.175-2.263.451-.869.643-1.791.349-2.817-.13.087-.25.159-.356.248-.316.264-.612.549-.94.799-.82.625-1.74.943-2.78.786-1.1-.164-1.86-.821-2.424-1.735-.442-.715-.603-1.524-.72-2.34a10.83 10.83 0 0 1-.117-1.228c-.028-1.007.755-1.589 1.72-1.285.569.18 1.128.39 1.735.603.22-.568.103-1.043-.275-1.459-.39-.428-.814-.828-1.2-1.258-.56-.624-1.166-1.225-1.641-1.91-1.875-2.71-1.917-5.574-.587-8.515.267-.59.727-.933 1.38-1.01.458-.054.916-.114 1.437-.178-.102-.334-.175-.617-.278-.89-.367-.98-.753-1.953-1.115-2.934a3.826 3.826 0 0 1-.222-.866c-.063-.556.17-.886.701-1.059.807-.264 1.52-.068 2.128.494.355.33.673.701 1.003 1.056.161.173.318.353.477.529l.13-.056c-.023-.416-.048-.833-.067-1.249-.026-.596-.075-1.195-.063-1.793.011-.631.474-1.094 1.085-1.157.458-.047.787.17 1.056.514l2.013 2.555c.566.72 1.13 1.443 1.7 2.16.22.279.456.543.71.842.108-.114.204-.198.277-.296.33-.452.767-.583 1.286-.419.448.14.844.044 1.227-.196.57-.358 1.143-.711 1.718-1.062.16-.098.323-.192.494-.264.64-.274 1.173-.138 1.578.428.206.287.364.608.55.912.076.126.168.243.25.362.593-.033 1.18-.152 1.741-.073.538.075 1.047.354 1.62.562a1.28 1.28 0 0 0 .51-1.172c-.04-.484.168-.827.561-1.08l.285-.18c.241-.145.328-.323.201-.608-.245-.55-.498-1.082-.998-1.463-.402-.307-.468-.61-.294-1.09.063-.175.154-.341.224-.514.201-.493.304-1 .213-1.534-.204-1.178-.47-2.347-.412-3.558.007-.154-.117-.372-.248-.468-1.21-.877-1.776-2.13-2.11-3.528-.07-.29-.16-.575-.24-.865-.13-.484.017-.888.377-1.216.248-.224.517-.427.804-.664-.025-.339-.042-.692-.081-1.045-.115-1.01-.1-2.02.11-3.013a4.16 4.16 0 0 1 .441-1.144 3.198 3.198 0 0 0 .419-1.601c.014-1.515.051-3.028.11-4.543.02-.542-.136-.902-.634-1.185-1.122-.64-1.915-1.61-2.429-2.787a14.97 14.97 0 0 1-.662-1.9c-.226-.784.042-1.434.653-1.953.254-.217.528-.42.771-.652.496-.472.547-.793.264-1.403-.39-.842-.4-.923-.203-1.828-.147-.075-.302-.169-.47-.232-1.767-.673-2.848-2.003-3.512-3.712-.327-.842.417-1.705 1.31-1.555.147.026.287.08.432.114.288.068.566.073.765-.191.198-.264.11-.533-.026-.79a4.083 4.083 0 0 0-.267-.428c-.224-.323-.434-.657-.68-.961-1.092-1.347-1.403-2.892-1.227-4.583.135-1.309.378-2.588.888-3.806.028-.068.054-.14.068-.213.007-.032-.014-.07-.042-.184-.451.853-.849 1.669-1.307 2.445-.465.788-.991 1.536-1.513 2.333.138.227.28.463.428.697.57.91.613 1.805-.002 2.729-.704 1.056-1.057 2.258-1.368 3.476-.19.741-.395 1.482-.685 2.188-.645 1.579-1.821 2.474-3.558 2.549-.396.016-.618.185-.728.561a9.433 9.433 0 0 1-.383 1.052c-.47 1.094-1.27 1.847-2.417 2.174-1.864.531-3.234 1.658-4.202 3.316a11.89 11.89 0 0 1-.75 1.115c-.41.54-.99.669-1.597.383-.269-.126-.472-.327-.51-.626-.04-.332-.04-.667-.049-1.001-.02-.783.005-1.571-.063-2.35-.07-.809-.444-1.505-1.036-2.062-.477-.446-.98-.867-1.494-1.272-.771-.605-1.365-1.316-1.594-2.302-.091-.389-.185-.424-.664-.44-1.733-.058-3.325.402-4.797 1.305-.223.135-.447.282-.69.369-.688.245-1.281-.06-1.494-.76-.197-.648-.143-1.302.044-1.936.344-1.18 1.024-2.108 2.135-2.69.098-.052.2-.104.292-.169.355-.255.442-.517.274-.923a2.253 2.253 0 0 0-.342-.573 7.95 7.95 0 0 0-.666-.68c-1.003-.94-1.008-2.072-.01-3.03.134-.13.27-.256.428-.408-.897-1.201-1.776-2.387-2.672-3.56-.133-.173-.36-.274-.502-.444-.188-.225-.396-.463-.484-.734-.227-.69.177-1.284.895-1.38.313-.042.629-.058 1.026-.093-.568-2.025-.876-4.038-.355-6.102-.133-.085-.231-.164-.346-.213-.72-.314-1.22-.847-1.564-1.541-.15-.302-.295-.606-.454-.902-.203-.384-.53-.564-.963-.557-.43.007-.86.017-1.29.021-1.59.019-2.907-.594-3.996-1.728a20.646 20.646 0 0 1-.381-.411c-.276-.311-.62-.458-1.038-.477a10.134 10.134 0 0 1-1.06-.112c-.47-.07-.783-.344-.907-.807-.294-1.101-.42-2.214-.028-3.313.22-.61.085-1.066-.364-1.515-2.932-2.94-5.847-5.894-8.772-8.842-.648-.652-1.115-.739-1.974-.383-1.536.638-3.074 1.267-4.608 1.914-1.332.562-2.644.548-3.967-.042-1.52-.678-3.044-1.34-4.578-1.985-1.824-.766-3.734-1.192-5.7-1.377a7.872 7.872 0 0 0-2.508.155c-1.974.453-3.161 1.7-3.47 3.708-.374 2.445.465 4.402 2.44 5.88.314.236.644.45.962.682.393.286.537.671.386 1.134-.375 1.134-.456 2.31-.51 3.486-.061 1.347-.45 2.577-1.197 3.682-.311.461-.325.854-.094 1.352 1.13 2.443 2.233 4.898 3.341 7.35.236.522.52.992 1.057 1.26.292.146.388.435.46.735.176.736.085 1.447-.177 2.146a5.613 5.613 0 0 1-1.314 2.001c-.608.608-1.213 1.22-1.842 1.805-1.022.952-1.6 2.088-1.62 3.505-.012.839-.36 1.569-.969 2.141-.434.41-.92.762-1.379 1.148-.341.29-.699.568-1.005.893-.947 1.006-.947 1.967.007 2.962.844.884 1.81 1.62 2.86 2.247a15.964 15.964 0 0 1 3.013 2.324c2.19 2.151 3.58 4.765 4.442 7.68.734 2.476 1.024 5.01 1.036 7.585.004 1.007.044 2.015.07 3.07.755.06 1.246.547 1.753 1.017.631.584 1.281 1.15 1.917 1.727.166.15.34.3.473.477.547.725.191 1.684-.695 1.873-.31.068-.626.103-.94.157a7.608 7.608 0 0 0-4.327 2.314c-1.064 1.125-2.032 2.345-3.033 3.528-.93 1.099-1.811 2.24-2.78 3.304-2.11 2.321-4.67 4.005-7.584 5.162a85.16 85.16 0 0 0-2.483 1.033c-.67.293-.76.503-.512 1.179.134.367.27.748.487 1.066 1.421 2.076 2.347 4.372 3.046 6.771 1.113 3.827 1.903 7.724 2.48 11.666.07.482.16.961.2 1.442.102 1.247-.197 2.434-.723 3.535-.69 1.45-.818 2.928-.59 4.482.094.646.127 1.303.139 1.955.016.914-.367 1.665-1.064 2.254-.65.549-1.141.563-1.814.053-.206-.154-.403-.32-.594-.472-.257.145-.162.353-.162.524.012 1.964.052 3.925.05 5.889a642.71 642.71 0 0 1-.258 18.508c-.044 1.531-.065 3.067 0 4.598.108 2.567.489 5.095 1.422 7.512a17.132 17.132 0 0 0 1.826 3.465c.727 1.069 1.7 1.765 2.988 2.008 2.4.449 4.526 1.508 6.462 2.972.4.304.802.603 1.22.919.138-.162.243-.288.353-.412.463-.519.898-.589 1.487-.21.886.57 1.613 1.314 1.988 2.298.303.8.801 1.047 1.617 1.047 1.543 0 3.002-.282 4.4-.939.86-.405 1.73-.814 2.69-.94 1.03-.136 1.982.107 2.795.741.994.774 1.35 1.819 1.06 3.044-.139.577-.38 1.129-.597 1.763 1.908.385 3.827.528 5.833.666 0-.388-.004-.718 0-1.05.03-2.169.545-4.217 1.578-6.128.599-1.103 1.394-2.031 2.455-2.719 1.392-.902 2.825-.989 4.305-.229.968.496 1.765 1.195 2.431 2.041 2.586 3.295 3.848 7.024 3.568 11.223-.063.963-.309 1.914-.47 2.873l-.108.655c1.434.299 2.85.439 4.288.313 1.396-.094 2.787-.348 3.928-1.358Zm-14.301 3.27c.156-.114.285-.194.392-.292.996-.923 2.137-1.562 3.482-1.817.292-.056.46-.231.528-.512.05-.198.091-.399.13-.603.352-1.821.3-3.642-.004-5.464-.437-2.63-1.459-5.007-3.128-7.098a6.565 6.565 0 0 0-1.658-1.494c-1.047-.652-2.078-.628-3.1.061a6.08 6.08 0 0 0-1.594 1.56c-2.165 3.088-2.418 6.345-.844 9.756.315.685.834 1.19 1.505 1.531.43.22.73.08.833-.392a4.34 4.34 0 0 0 .077-.835c.012-.69.229-1.321.519-1.934.164-.348.437-.556.835-.558.297 0 .425.154.318.427-.108.276-.262.536-.414.793-.316.531-.468 1.099-.4 1.716.056.505.264.697.77.687.801-.016 1.49-.306 2.047-.893.634-.671 1.165-1.412 1.53-2.265.205-.479.397-.968.602-1.447.094-.22.169-.468.482-.51.255.159.302.388.213.669-.29.925-.54 1.868-.875 2.777-.395 1.073-1.134 1.887-2.141 2.429-.426.229-.889.386-1.335.573-.215.091-.43.178-.657.271.397 1.144.947 2.097 1.887 2.864Zm21.027-32.885c-.348.437-.285.806-.203 1.176.252 1.131.58 2.239 1.047 3.305.489 1.111.956 2.233 1.44 3.346.061.143.152.274.23.409.035-.012.072-.021.107-.033-.019-.196-.028-.395-.058-.589a33.963 33.963 0 0 0-1.282-5.447c-.18-.545-.465-1.059-.74-1.567-.118-.215-.333-.374-.54-.6Zm6.806 11.528c-.04-.566-.154-1.111-.519-1.566-.206-.26-.458-.445-.816-.374-.563.109-1.043.717-.944 1.278.093.531.243 1.052.411 1.567.14.425.437.561.881.474.601-.119.985-.654.987-1.379Zm-10.023 1.877c.634-.035 1.118-.271 1.433-.71.227-.314.342-.662.248-1.05-.117-.486-.519-.638-.935-.358-.615.414-.952 1.368-.746 2.118Zm13.911-8.877c1.099.035 1.786-.575 1.796-1.534.002-.261-.061-.483-.311-.61-.25-.126-.477-.054-.669.122-.587.531-.89 1.178-.816 2.022ZM48.25 189.575c1.101.278 1.987-.166 2.326-1.12-.804-.08-1.777.379-2.326 1.12Z"
        fill="#fff" />
    <path
        d="M93.872 137.193c2.532.042 4.863.722 7.007 2.066 1.248.784 2.511 1.548 3.787 2.285 1.665.96 3.122 2.179 4.454 3.553.814.84.65 1.964-.374 2.542-.584.329-1.197.61-1.807.893-.727.336-1.489.353-2.247.131-1.718-.503-3.446-.985-5.143-1.553-.807-.271-1.57-.689-2.322-1.099-.694-.376-1.265-.923-1.767-1.536-.19-.231-.386-.458-.552-.706-.648-.961-1.49-1.648-2.607-2.013-.851-.276-1.585-.757-2.104-1.508-.314-.453-.533-.937-.428-1.519.117-.657.402-.994 1.052-1.148.381-.089.767-.173 1.155-.218.631-.075 1.265-.114 1.896-.17Zm12.786 8.814c-.872-.884-1.779-1.618-2.803-2.214a176.499 176.499 0 0 1-4.377-2.614 10.552 10.552 0 0 0-4.236-1.527c-.577-.077-1.169-.061-1.753-.089l-.024.122c.143.068.28.149.428.206.882.332 1.594.893 2.193 1.606.348.416.676.846 1.01 1.274a5.242 5.242 0 0 0 1.847 1.52c.535.259 1.083.514 1.651.692 1.496.47 3.011.881 4.507 1.351.573.178 1.048.058 1.557-.327Zm.826 15.68c.037.155.074.297.103.44.123.622-.054 1.096-.513 1.365-.458.272-1.045.199-1.505-.189-.624-.526-.861-1.206-.751-2.004.171-1.262.858-2.167 1.974-2.751.488-.255.977-.183 1.428.126.435.294.564.72.512 1.223-.051.507-.28.923-.648 1.264-.191.178-.392.344-.6.526Zm-45.1 5.191c-.44-.012-.703-.37-.566-.772.052-.152.16-.294.265-.418a356.78 356.78 0 0 1 1.957-2.294c.095-.112.196-.227.313-.316.283-.219.643-.205.863.022.22.226.231.505.009.808-.131.18-.29.339-.437.508l-1.821 2.113c-.162.185-.32.372-.583.349Z"
        fill="#fff" />
</svg>