<svg class="w-10 h-10" viewBox="0 0 133 63" fill="none" xmlns="http://www.w3.org/2000/svg">
    <path
        d="M63.5992 12.6992L46.7992 3.49921L29.9992 12.6992L12.4992 3.09921C11.6992 2.69921 11.4992 1.69921 11.8992 0.999207C12.2992 0.199206 13.2992 -0.000799179 13.9992 0.3992L29.9992 9.19922L46.7992 -0.000793457L63.5992 9.19922L80.3992 -0.000793457L97.1992 9.19922L113.999 -0.000793457L131.499 9.59921C132.299 9.99921 132.499 10.9992 132.099 11.6992C131.699 12.4992 130.699 12.6992 129.999 12.2992L113.999 3.49921L97.1992 12.6992L80.3992 3.49921L63.5992 12.6992Z"
        fill="#9D9D9D"></path>
    <path
        d="M63.5992 26.5L46.7992 17.3L29.9992 26.5L12.4992 16.9C11.6992 16.5 11.4992 15.5 11.8992 14.8C12.2992 14 13.2992 13.8 13.9992 14.2L29.9992 23L46.7992 13.8L63.5992 23L80.3992 13.8L97.1992 23L113.999 13.8L131.499 23.4C132.299 23.8 132.499 24.8 132.099 25.5C131.699 26.3 130.699 26.5 129.999 26.1L113.999 17.3L97.1992 26.5L80.3992 17.3L63.5992 26.5Z"
        fill="#9D9D9D"></path>
    <path
        d="M63.5992 40.2998L46.7992 31.0998L29.9992 40.2998L12.4992 30.6998C11.6992 30.2998 11.4992 29.2998 11.8992 28.5998C12.2992 27.7998 13.2992 27.5998 13.9992 27.9998L29.9992 36.7998L46.7992 27.5998L63.5992 36.7998L80.3992 27.5998L97.1992 36.7998L113.999 27.5998L131.499 37.1998C132.299 37.5998 132.499 38.5998 132.099 39.2998C131.699 40.0998 130.699 40.2998 129.999 39.8998L113.999 31.0998L97.1992 40.2998L80.3992 31.0998L63.5992 40.2998Z"
        fill="#9D9D9D"></path>
    <path
        d="M63.5992 54.0996L46.7992 44.8996L29.9992 54.0996L12.4992 44.4996C11.6992 44.0996 11.4992 43.0996 11.8992 42.3996C12.2992 41.5996 13.2992 41.3996 13.9992 41.7996L29.9992 50.5996L46.7992 41.3996L63.5992 50.5996L80.3992 41.3996L97.1992 50.5996L113.999 41.3996L131.499 50.9996C132.299 51.3996 132.499 52.3996 132.099 53.0996C131.699 53.8996 130.699 54.0996 129.999 53.6996L113.999 44.8996L97.1992 54.0996L80.3992 44.8996L63.5992 54.0996Z"
        fill="#9D9D9D"></path>
    <path
        d="M51.9 21.0996L35.1 11.8996L18.3 21.0996L0.800005 11.4996C4.52995e-06 11.0996 -0.200002 10.0996 0.199998 9.3996C0.599998 8.5996 1.6 8.39959 2.3 8.79959L18.3 17.5996L35.1 8.3996L51.9 17.5996L68.7 8.3996L85.5 17.5996L102.3 8.3996L119.8 17.9996C120.6 18.3996 120.8 19.3996 120.4 20.0996C120 20.8996 119 21.0996 118.3 20.6996L102.3 11.8996L85.5 21.0996L68.7 11.8996L51.9 21.0996Z"
        fill="currentColor"></path>
    <path
        d="M51.9 21.0996L35.1 11.8996L18.3 21.0996L0.800005 11.4996C4.52995e-06 11.0996 -0.200002 10.0996 0.199998 9.3996C0.599998 8.5996 1.6 8.39959 2.3 8.79959L18.3 17.5996L35.1 8.3996L51.9 17.5996L68.7 8.3996L85.5 17.5996L102.3 8.3996L119.8 17.9996C120.6 18.3996 120.8 19.3996 120.4 20.0996C120 20.8996 119 21.0996 118.3 20.6996L102.3 11.8996L85.5 21.0996L68.7 11.8996L51.9 21.0996Z"
        fill="currentColor" fill-opacity="0.2"></path>
    <path
        d="M51.9 34.9004L35.1 25.7004L18.3 34.9004L0.800005 25.3004C4.52995e-06 24.9004 -0.200002 23.9004 0.199998 23.2004C0.599998 22.4004 1.6 22.2004 2.3 22.6004L18.3 31.4004L35.1 22.2004L51.9 31.4004L68.7 22.2004L85.5 31.4004L102.3 22.2004L119.8 31.8004C120.6 32.2004 120.8 33.2004 120.4 33.9004C120 34.7004 119 34.9004 118.3 34.5004L102.3 25.7004L85.5 34.9004L68.7 25.7004L51.9 34.9004Z"
        fill="currentColor"></path>
    <path
        d="M51.9 34.9004L35.1 25.7004L18.3 34.9004L0.800005 25.3004C4.52995e-06 24.9004 -0.200002 23.9004 0.199998 23.2004C0.599998 22.4004 1.6 22.2004 2.3 22.6004L18.3 31.4004L35.1 22.2004L51.9 31.4004L68.7 22.2004L85.5 31.4004L102.3 22.2004L119.8 31.8004C120.6 32.2004 120.8 33.2004 120.4 33.9004C120 34.7004 119 34.9004 118.3 34.5004L102.3 25.7004L85.5 34.9004L68.7 25.7004L51.9 34.9004Z"
        fill="currentColor" fill-opacity="0.2"></path>
    <path
        d="M51.9 48.7002L35.1 39.5002L18.3 48.7002L0.800005 39.1002C4.52995e-06 38.7002 -0.200002 37.7002 0.199998 37.0002C0.599998 36.2002 1.6 36.0002 2.3 36.4002L18.3 45.2002L35.1 36.0002L51.9 45.2002L68.7 36.0002L85.5 45.2002L102.3 36.0002L119.8 45.6002C120.6 46.0002 120.8 47.0002 120.4 47.7002C120 48.5002 119 48.7002 118.3 48.3002L102.3 39.5002L85.5 48.7002L68.7 39.5002L51.9 48.7002Z"
        fill="currentColor"></path>
    <path
        d="M51.9 48.7002L35.1 39.5002L18.3 48.7002L0.800005 39.1002C4.52995e-06 38.7002 -0.200002 37.7002 0.199998 37.0002C0.599998 36.2002 1.6 36.0002 2.3 36.4002L18.3 45.2002L35.1 36.0002L51.9 45.2002L68.7 36.0002L85.5 45.2002L102.3 36.0002L119.8 45.6002C120.6 46.0002 120.8 47.0002 120.4 47.7002C120 48.5002 119 48.7002 118.3 48.3002L102.3 39.5002L85.5 48.7002L68.7 39.5002L51.9 48.7002Z"
        fill="currentColor" fill-opacity="0.2"></path>
    <path
        d="M51.9 62.5L35.1 53.3L18.3 62.5L0.800005 52.9C4.52995e-06 52.5 -0.200002 51.5 0.199998 50.8C0.599998 50 1.6 49.8 2.3 50.2L18.3 59L35.1 49.8L51.9 59L68.7 49.8L85.5 59L102.3 49.8L119.8 59.4C120.6 59.8 120.8 60.8 120.4 61.5C120 62.3 119 62.5 118.3 62.1L102.3 53.3L85.5 62.5L68.7 53.3L51.9 62.5Z"
        fill="currentColor"></path>
    <path
        d="M51.9 62.5L35.1 53.3L18.3 62.5L0.800005 52.9C4.52995e-06 52.5 -0.200002 51.5 0.199998 50.8C0.599998 50 1.6 49.8 2.3 50.2L18.3 59L35.1 49.8L51.9 59L68.7 49.8L85.5 59L102.3 49.8L119.8 59.4C120.6 59.8 120.8 60.8 120.4 61.5C120 62.3 119 62.5 118.3 62.1L102.3 53.3L85.5 62.5L68.7 53.3L51.9 62.5Z"
        fill="currentColor" fill-opacity="0.2"></path>
</svg>